<?xml version="1.0" encoding="utf-8"?>
<!-- Generator: Adobe Illustrator 24.0.2, SVG Export Plug-In . SVG Version: 6.00 Build 0)  -->
<svg version="1.1" xmlns="http://www.w3.org/2000/svg" xmlns:xlink="http://www.w3.org/1999/xlink" x="0px" y="0px"
	 viewBox="0 0 24 24" style="enable-background:new 0 0 24 24;" xml:space="preserve">
<style type="text/css">
	.st0{fill:none;}
	.st1{fill:#ffffff;}
</style>
<g id="bounding_box">
	<rect class="st0" width="24" height="24"/>
</g>
<g id="design">
	<g>
		<path class="st1" d="M20.94,8.29l-1.56,5.11c-0.36,1.31-1.34,2.1-2.6,2.1H8.63c-0.47,0-0.88-0.33-0.98-0.79l-1.39-6.5V8.18
			L5.95,6.72C5.87,6.3,5.53,6,5.13,6H3C2.45,6,2,5.55,2,5s0.45-1,1-1h2.13c1.36,0,2.53,0.98,2.79,2.33L8.05,7h11.94
			c0.31,0,0.61,0.15,0.8,0.41C20.98,7.66,21.03,7.99,20.94,8.29z"/>
		<g>
			<circle class="st1" cx="10" cy="19" r="2"/>
		</g>
		<g>
			<circle class="st1" cx="16.5" cy="19" r="2"/>
		</g>
	</g>
</g>
</svg>
